# xmcd CD database file
#
# Track frame offsets:
#	150
#	28889
#	52219
#	75334
#	103484
#	144277
#	170501
#	200819
#	226493
#
# Disc length: 3170 seconds
#
# Revision: 0
# Processed by: cddbd v1.5.2PL0 Copyright (c) Steve Scherf et al.
# Submitted via: CDex 1.51
#
DISCID=800c6009
DTITLE=Charlie Mariano with Känzig, Cholet, Papaux - silver blue
DYEAR=2006
DGENRE=Jazz
TTITLE0=prelude to a kiss
TTITLE1=cheers my lady
TTITLE2=ages ago
TTITLE3=my funny valentine
TTITLE4=my foolish heart
TTITLE5=he's gone
TTITLE6=black orpheus
TTITLE7=half moon in a blue sky
TTITLE8=dorothee
EXTD=YEAR: 2006
EXTT0=
EXTT1=
EXTT2=
EXTT3=
EXTT4=
EXTT5=
EXTT6=
EXTT7=
EXTT8=
PLAYORDER=
